<?xml version="1.0" encoding="utf-8"?>
<!-- Generator: Adobe Illustrator 19.2.1, SVG Export Plug-In . SVG Version: 6.00 Build 0)  -->
<svg version="1.1" id="layer" xmlns="http://www.w3.org/2000/svg" xmlns:xlink="http://www.w3.org/1999/xlink" x="0px" y="0px"
	 viewBox="0 0 652 652" style="enable-background:new 0 0 652 652;" xml:space="preserve">
<style type="text/css">
	.st0{fill:#474646;}
	.st1{fill:#E54B25;}
</style>
<path class="st0" d="M620.5,326c0-0.9-0.1-1.8-0.3-2.8c-0.1-3.3-1.1-6.8-2.7-10.1c-2.2-4.1-5.5-7.8-10.2-10.1
	c-4.1-2.2-9.1-3.3-15.3-3.3c-6.5,0-11.8,1.2-16.2,3.3c-5.1,2.4-8.9,6.1-11.7,10.1c-2,3.3-3.2,6.8-3.9,10.1c-0.1,1.5-0.2,2.8-0.3,4
	c0.1,2.2,0.3,4.4,0.9,6.4c0.8,3.8,2.5,7.2,5.1,10.1c5.6,6.4,15.1,10.1,27.8,10.1c8.5,0,16.1-1.1,22.8-3.6c0.1,0-0.2-0.4-0.1-0.4
	l0.2-0.4l-1.3-5.7l-0.9-4.6c-5.8,1.6-11.3,2.3-18,2.2c-8.4,0.1-16-2.5-17.7-7.7c-0.3-0.6-0.4-1.1-0.6-1.5h41.3
	C620,331,620.4,328.5,620.5,326 M590.9,310.7c3.9-0.1,6.5,1,8.1,2.4c2.9,2.3,3.6,5.6,3.6,7.4h-24.3c0.3-2.2,1.6-5.2,4.5-7.4
	C584.6,311.6,587.3,310.6,590.9,310.7"/>
<path class="st0" d="M540.7,313.2c1.7-0.4,3.7-0.7,5.8-0.6c3.3-0.1,5.8,0.2,7.9,0.6c1.6,0.3,2.9,0.8,4,1.2l0.3-1.2l2.7-10.1l0.3-0.9
	c-4.7-1.6-10.8-2.3-16.1-2.4c-7.3,0.1-13.4,1.3-18.5,3.3c-6.1,2.3-10.6,5.8-13.6,10.1c-2.1,3.1-3.5,6.6-4,10.1
	c-0.3,1.4-0.4,2.8-0.3,4c-0.1,2.3,0.1,4.4,0.6,6.4c0.9,3.8,2.7,7.2,5.4,10.1c5.7,6.5,15.3,10.2,27.6,10.1c8,0.1,15-1,18.8-2.4
	l-1.5-7.7l-0.9-4.6c-3.2,1-7.1,1.8-12.1,1.8c-6.9,0-13.2-2.5-16.1-7.4c-1.2-2-1.9-4.3-1.8-7c0-1.1,0-2.2,0.3-3.3
	C530.7,318.4,534.7,314.7,540.7,313.2"/>
<path class="st0" d="M496,303c-3.9-2.2-8.3-3.2-13.2-3.3c-5.4,0.1-9.7,1.5-12.9,3.3c-3.3,1.8-5.5,4-6.6,5.5h-0.6l-0.6-5.5v-2.1
	h-16.7c0,0.8,0,1.4,0,2.1c0.2,2.8,0.3,6.3,0.3,10c0.1,1.5,0.1,3.1,0,4.6v34.6h19.5v-18.8v-10c-0.1-0.1-0.1-0.1,0-0.3
	c-0.1-1.1,0-2.5,0.6-3.3c1.2-3,4.5-6.6,10.5-6.7c6.5,0,9.8,3.9,10.2,10c0.2,0.7,0.2,1.4,0.3,2.1v8.2v18.8h19.2v-18.8V323v-0.3
	c0-3.7-0.6-6.9-1.5-9.7C502.6,308.4,499.6,305.1,496,303"/>
<path class="st0" d="M439.2,313.2c-2.1-4.1-5.4-7.8-10.2-10.1c-4.1-2.2-9.1-3.3-15.3-3.3c-6.4,0-11.7,1.2-15.9,3.3
	c-5.4,2.4-9.2,6.1-11.7,10.1c-2.2,3.3-3.4,6.8-3.9,10.1c-0.3,1.5-0.4,2.8-0.3,4c-0.1,2.2,0.1,4.4,0.6,6.4c0.9,3.8,2.6,7.2,5.1,10.1
	c5.7,6.4,15.3,10.1,27.9,10.1c8.6,0,16.4-1.1,23.4-3.7l-1.8-6.4l-0.9-4.6c-5.7,1.6-11.3,2.3-18.1,2.2c-8.4,0.1-16-2.5-17.7-7.7
	c-0.2-0.6-0.3-1.1-0.3-1.5h41.5c0.2-1.2,0.6-3.7,0.6-6.1c0-0.9,0-1.8,0-2.8C441.8,320,440.9,316.4,439.2,313.2 M412.7,310.7
	c3.6-0.1,6.3,1,8.1,2.4c2.6,2.3,3.3,5.6,3.3,7.4h-24.4c0.3-2.2,1.7-5.2,4.5-7.4C406.2,311.6,409,310.6,412.7,310.7"/>
<path class="st0" d="M388.1,301.3h-20.4l-0.9,2.1l-3.6,9.9l-3.6,10l-0.6,2.1c-1,2.9-1.9,5.5-2.7,8.1c-0.3,1.1-0.6,2.4-0.9,3.6h-0.6
	c-0.2-1.2-0.5-2.4-0.9-3.6c-0.7-2.6-1.6-5.3-2.7-8.1l-0.6-2.1l-3.9-9.9l-3.9-10l-0.6-2.1h-20.9l0.9,2.1l4.5,9.9l4.5,9.9l4.8,10.3
	l4.5,9.9l3.9,8.8h19.8l4.2-8.8l4.8-9.9l4.9-10.2l4.5-9.9l4.8-9.9L388.1,301.3z"/>
<path class="st0" d="M322.2,313.2c-2.8-4.4-7-7.9-12.5-10.1c-4.5-2.2-10.1-3.3-16.3-3.3c-6.6,0.1-12.4,1.2-17.2,3.3
	c-5.6,2.2-9.9,5.7-12.7,10.1c-2,3.1-3.3,6.5-3.9,10.1c-0.1,1.4-0.2,2.7-0.3,4c0,2.3,0.3,4.4,0.9,6.4c0.9,3.8,2.8,7.2,5.3,10.1
	c6,6.6,15.8,10.2,26.7,10.1c10.9,0.1,20.8-3.4,27-10.1c2.7-2.8,4.7-6.2,5.7-10.1c0.7-2.3,1-4.8,1.2-7.4c-0.1-1.1-0.2-2-0.3-3.1
	C325.3,319.6,324.1,316.2,322.2,313.2 M292.5,342.2c-6.1,0-10.4-3.4-12.5-8.6c-0.6-2.1-1-4.3-0.9-6.7c-0.1-1.2,0-2.4,0.3-3.7
	c0.6-4.2,2.7-8,6.6-10.1c1.8-1,4.1-1.6,6.8-1.5c2.5,0,4.6,0.5,6.5,1.5c3.6,2.1,5.7,5.9,6.2,10.1c0.3,1.2,0.4,2.4,0.3,3.7
	c0.1,2.4-0.3,4.7-0.9,6.7C302.9,339.2,298.4,342.2,292.5,342.2"/>
<path class="st0" d="M244.1,303c-2.8,1.8-5.3,4.5-6.7,8.2h-0.6l-0.3-8.2l-0.3-2.1h-16.7c0.1,0.8,0.1,1.4,0.3,2.1
	c0,2.7,0.1,5.8,0.3,10c-0.1,1.7-0.1,3.4,0,5.5v4.6v10.3l-0.3,10v8.8h19.7v-8.8v-10v-7c-0.1-1,0-2.1,0-3c0.1,0,0.1-0.1,0.3-0.3
	c1-4.7,5.7-8.1,13.7-8.2c2.3,0.1,3.9,0.4,5.8,0.6v-2.4v-10v-3c-1.7-0.2-2.6-0.2-4.2-0.3C251.5,299.8,247.5,300.8,244.1,303"/>
<path class="st0" d="M208.6,286.5c-5.7-3.7-14.3-5.9-26.4-5.8c-13,0-21.8,0.7-28,1.5v70.1h19.5v-25.1c1.8,0.3,4.4,0.5,7.3,0.6
	c9.7-0.1,17.9-1.6,24.3-4.9c1.7-0.8,3.3-1.8,4.9-3.1c2.5-1.8,4.3-4.3,5.8-7c1.2-2.9,1.9-6.2,1.8-9.5c0.1-0.3,0.1-0.5,0-0.6
	C217.6,295.5,213.8,289.8,208.6,286.5 M181,314.9c-3.3,0-5.6-0.2-7.3-0.6v-1.5v-10.1v-8.8c1.4-0.4,4.3-0.7,8.8-0.6
	c9.6,0,15.5,3.2,16.1,9.5c-0.1,0.1-0.1,0.4,0,0.6c-0.1,4.4-2.5,7.6-6.7,9.5C189.1,314.1,185.4,314.9,181,314.9"/>
<path class="st0" d="M131,340.1v-6.5v-10.4v-0.9c0-3.3-0.5-6.4-1.5-9.2c-1.8-4.3-4.8-7.8-9.5-10.1c-4.2-2.1-9.6-3.3-16.4-3.3
	c-8.8,0.1-15.7,1.6-20.3,3.3c-1.8,0.5-3.1,1.1-4.2,1.5l2.7,8.6l0.9,2.2c1.3-0.8,3.1-1.5,5.1-2.2c3.8-1.2,8.3-2.1,12.5-2.2
	c4.7,0.1,7.5,1,9.2,2.2c1.9,1.4,2.4,3.3,2.4,4.6v0.3c-12,0-21.5,1.8-28,5.2c-4.4,2.6-7.3,6-8.6,10.4c-0.2,1.3-0.5,2.9-0.6,4.6
	c0.1,1.8,0.6,3.7,1.5,5.5c2.5,5.7,9,10.2,18.8,10.1c7.6,0.1,14.1-2.2,18.2-6.4h0.3l1.2,5.2h17.3c-0.4-2-0.8-5.2-0.9-8.9
	C131,342.5,131,341.3,131,340.1 M112.5,328.4v4.6c0,0.2,0,0.3,0,0.6c-0.1,0.7-0.1,1.5-0.3,2.2c-1.3,3.5-5.5,6.5-10.4,6.4
	c-4.9,0.1-7.9-2-8.1-5.8c0.1-1.1,0.4-2,0.9-2.8C96.8,329.9,103.4,328.4,112.5,328.4"/>
<polygon class="st0" points="20.5,280.6 39.3,280.6 39.3,336.2 73,336.2 73,352.2 20.5,352.2 "/>
<rect x="20.5" y="350.6" class="st1" width="596.8" height="12.7"/>
</svg>
