<svg xmlns="http://www.w3.org/2000/svg" viewBox="0 0 377 52" id="logo-lp">
      <g fill-rule="evenodd">
        <path d="M377,28.5339018 C376.970102,27.9627306 376.940205,27.4216211 376.820614,26.7903267 C376.730921,24.7160736 376.132966,22.4915122 375.116444,20.4473207 C373.741149,17.8920814 371.678206,15.5773351 368.718332,14.1043148 C366.117231,12.751541 362.97797,12 359.121164,12 C355.055075,12 351.736428,12.7816026 348.95594,14.1043148 C345.726987,15.6073968 343.335169,17.922143 341.630999,20.4473207 C340.405193,22.5215739 339.627852,24.7461352 339.179386,26.7903267 C339.119591,27.7222375 339.059795,28.5339018 339,29.2854428 C339.059795,30.6983399 339.209284,32.021052 339.568057,33.3137025 C340.076318,35.688572 341.152636,37.8530101 342.767113,39.6567085 C346.295043,43.6849682 352.274587,46.0297761 360.257278,45.9997144 C365.579072,45.9997144 370.392604,45.3082967 374.578285,43.7450915 C374.63808,43.7150298 374.458694,43.5045983 374.518489,43.4745367 L374.63808,43.2340436 L373.800944,39.6567085 L373.232887,36.7707911 C369.585366,37.7628252 366.147128,38.2137498 361.93155,38.1235648 C356.639654,38.2137498 351.856019,36.5302979 350.839496,33.3137025 C350.66011,32.9529628 350.570417,32.6222848 350.450826,32.35173 L376.402046,32.35173 C376.701023,31.6302507 376.940205,30.0670454 377,28.5339018 M358.373721,18.9141771 C360.795437,18.8239922 362.439811,19.5154099 363.456334,20.4473207 C365.250197,21.9203411 365.698662,23.9945942 365.72856,25.0768132 L350.480724,25.0768132 C350.66011,23.6939778 351.497246,21.8000945 353.321007,20.4473207 C354.45712,19.4853483 356.16129,18.8239922 358.373721,18.9141771" fill="#FFFFFF" fill-rule="nonzero"></path>
  <path d="M326.857536,20.4464867 C327.917412,20.1759587 329.158981,20.0256653 330.491397,20.055724 C332.550585,19.9956066 334.15554,20.1759587 335.427392,20.4464867 C336.456986,20.6568974 337.274604,20.9274255 337.91053,21.2280122 L338.092223,20.4464867 L339.818307,14.104107 L340,13.5329923 C337.032347,12.5410561 333.216793,12.0601173 329.885754,12 C325.313145,12.0601173 321.437027,12.8115841 318.257398,14.104107 C314.441844,15.5469232 311.59532,17.7712649 309.687543,20.4464867 C308.385409,22.4003004 307.507226,24.5645247 307.204405,26.7888664 C307.022712,27.6906266 306.962147,28.5322694 307.022712,29.2837362 C306.962147,30.7265524 307.113558,32.0491339 307.41638,33.3115982 C307.991741,35.6862332 309.142464,37.8504576 310.838266,39.6539779 C314.411562,43.7118985 320.467997,46.0865336 328.189952,45.9963576 C333.216793,46.0564749 337.607708,45.3651255 340,44.4633653 L339.03097,39.6539779 L338.455609,36.7683454 C336.456986,37.3995775 334.004129,37.9105749 330.824501,37.9105749 C326.463868,37.8805162 322.557467,36.347524 320.710255,33.2815395 C319.9532,32.0190753 319.52925,30.576259 319.559532,28.8629148 C319.52925,28.1715653 319.589814,27.4802159 319.741225,26.7588077 C320.558844,23.7529406 323.072264,21.4083642 326.857536,20.4464867" fill="#FFFFFF" fill-rule="nonzero"></path>
  <path d="M298.783448,14.0848375 C296.36258,12.6850181 293.553177,12.0595668 290.504675,12 C287.127414,12.0595668 284.43756,12.9232852 282.405226,14.0848375 C280.313117,15.1868231 278.938303,16.5866426 278.280783,17.5099278 L277.892249,17.5099278 L277.503714,14.0848375 L277.503714,12.7445848 L267.013283,12.7445848 C266.983396,13.2211191 267.013283,13.6083032 267.013283,14.0848375 C267.132832,15.8718412 267.222494,18.0162455 267.192607,20.3691336 C267.252381,21.3222022 267.252381,22.3050542 267.192607,23.2283394 L267.192607,44.9702166 L279.416499,44.9702166 L279.416499,33.1462094 L279.416499,26.8619134 C279.356725,26.7725632 279.356725,26.7725632 279.416499,26.683213 C279.356725,25.9981949 279.416499,25.1046931 279.805034,24.5983755 C280.552215,22.6922383 282.614437,20.4287004 286.380232,20.398917 C290.444901,20.4287004 292.507122,22.8411552 292.776108,26.683213 C292.895657,27.1299639 292.895657,27.5469314 292.955431,28.0234657 L292.955431,33.1759928 L292.955431,45 L305,45 L305,33.1759928 L305,26.6534296 L305,26.4747292 C305,24.1516245 304.641353,22.1263538 304.073495,20.3691336 C302.937779,17.4801444 301.054881,15.3953069 298.783448,14.0848375" fill="#FFFFFF" fill-rule="nonzero"></path>
  <path d="M263.07952,20.4473207 C261.75919,17.8920814 259.658665,15.5773351 256.657914,14.1043148 C254.107277,12.751541 250.956489,12 247.025506,12 C243.004501,12 239.673668,12.7816026 237.033008,14.1043148 C233.642161,15.6073968 231.24156,17.922143 229.68117,20.4473207 C228.300825,22.5215739 227.52063,24.7461352 227.220555,26.7903267 C227.010503,27.7222375 226.950488,28.5339018 227.04051,29.2854428 C226.980495,30.6983399 227.130533,32.021052 227.430608,33.3137025 C227.970743,35.688572 229.08102,37.8530101 230.64141,39.6567085 C234.242311,43.6849682 240.243811,46.0297761 248.195799,45.9997144 C253.627157,45.9997144 258.51838,45.2782351 262.929482,43.6849682 L261.789197,39.6567085 L261.219055,36.7707911 C257.618155,37.7628252 254.137284,38.2137498 249.876219,38.1235648 C244.624906,38.2137498 239.823706,36.5302979 238.743436,33.3137025 C238.593398,32.9529628 238.533383,32.6222848 238.563391,32.35173 L264.609902,32.35173 C264.75994,31.600189 265,30.0369838 265,28.5038402 C265,27.932669 265,27.3915595 265,26.7602651 C264.699925,24.7160736 264.129782,22.4915122 263.07952,20.4473207 M246.455364,18.9141771 C248.735934,18.8239922 250.386347,19.5154099 251.556639,20.4473207 C253.207052,21.9203411 253.657164,23.9945942 253.627157,25.0768132 L238.323331,25.0768132 C238.533383,23.6939778 239.373593,21.8000945 241.144036,20.4473207 C242.374344,19.4853483 244.084771,18.8239922 246.455364,18.9141771" fill="#FFFFFF" fill-rule="nonzero"></path>
  <path d="M231,13 L218.196581,13 L217.628205,14.3308688 L215.354701,20.5711645 L213.111111,26.8410351 L212.722222,28.1719039 C212.064103,29.9759704 211.525641,31.6025878 211.017094,33.2883549 C210.837607,33.9981516 210.628205,34.767098 210.448718,35.5656192 L210.089744,35.5656192 C209.970085,34.7966728 209.790598,34.0277264 209.521368,33.2883549 C209.07265,31.6321627 208.534188,29.9463956 207.816239,28.1719039 L207.457265,26.8410351 L205.004274,20.6007394 L202.551282,14.3308688 L202.162393,13 L189,13 L189.568376,14.3308688 L192.380342,20.5711645 L195.192308,26.8114603 L198.213675,33.25878 L201.025641,39.4990758 L203.478632,45 L215.893162,45 L218.525641,39.4990758 L221.547009,33.25878 L224.598291,26.8410351 L227.410256,20.6007394 L230.431624,14.3604436 L231,13 Z" fill="#FFFFFF" fill-rule="nonzero"></path>
  <path d="M189.538136,20.4467364 C187.788136,17.7113164 185.148305,15.486909 181.707627,14.1041692 C178.860169,12.751489 175.389831,12.0601191 171.444915,12 C167.322034,12.0601191 163.644068,12.7815486 160.618644,14.1041692 C157.088983,15.5169685 154.389831,17.7113164 152.610169,20.4467364 C151.334746,22.3705482 150.533898,24.504777 150.177966,26.7893036 C150.088983,27.6610308 150.029661,28.5026985 150,29.2842471 C150.029661,30.7271059 150.207627,32.0497266 150.563559,33.3122281 C151.127119,35.7169929 152.313559,37.8512217 153.915254,39.6547953 C157.711864,43.8030146 163.851695,46.0875411 170.70339,45.9973625 C177.525424,46.0875411 183.783898,43.8631337 187.699153,39.6547953 C189.389831,37.8812812 190.635593,35.7470525 191.258475,33.3122281 C191.70339,31.8393097 191.911017,30.3062721 192,28.6830558 C191.911017,28.0217455 191.881356,27.4205543 191.822034,26.759244 C191.525424,24.504777 190.754237,22.3404887 189.538136,20.4467364 M170.881356,38.7229489 C167.055085,38.6928894 164.326271,36.5586606 163.050847,33.3422877 C162.665254,32.0497266 162.427966,30.6369273 162.487288,29.1038897 C162.427966,28.3524007 162.487288,27.6009117 162.665254,26.7893036 C163.050847,24.1440623 164.385593,21.7392975 166.788136,20.4467364 C167.944915,19.8154856 169.338983,19.4547709 171.088983,19.4848305 C172.631356,19.4547709 173.995763,19.8154856 175.182203,20.4467364 C177.436441,21.7392975 178.741525,24.1741218 179.097458,26.7893036 C179.275424,27.5708521 179.334746,28.2922816 179.275424,29.1038897 C179.334746,30.6369273 179.097458,32.0497266 178.711864,33.3422877 C177.466102,36.7991371 174.588983,38.6928894 170.881356,38.7229489" fill="#FFFFFF" fill-rule="nonzero"></path>
  <path d="M140.473301,14.0848375 C138.713592,15.1868231 137.135922,16.8844765 136.256068,19.2373646 L135.86165,19.2373646 L135.679612,14.0848375 L135.497573,12.7445848 L125,12.7445848 C125.06068,13.2211191 125.091019,13.6083032 125.182039,14.0848375 C125.212379,15.782491 125.273058,17.7481949 125.364078,20.3691336 C125.303398,21.4115523 125.303398,22.5135379 125.364078,23.7942238 L125.364078,26.683213 L125.364078,33.1759928 L125.182039,39.4602888 L125.182039,45 L137.591019,45 L137.591019,39.4602888 L137.591019,33.1759928 L137.591019,28.7680505 C137.5,28.1128159 137.56068,27.4575812 137.591019,26.8619134 C137.651699,26.83213 137.682039,26.7725632 137.773058,26.683213 C138.410194,23.734657 141.353155,21.6200361 146.359223,21.5306859 C147.785194,21.6200361 148.816748,21.7689531 150,21.91787 L150,20.398917 L150,14.0848375 L150,12.1787004 C148.938107,12.0595668 148.39199,12.0595668 147.330097,12 C145.145631,12.0595668 142.657767,12.6552347 140.473301,14.0848375" fill="#FFFFFF" fill-rule="nonzero"></path>
  <path d="M118.185958,3.66619108 C114.603416,1.32314087 109.229602,-0.028618872 101.578748,0.00142023331 C93.3814042,-0.028618872 87.886148,0.421967708 84,0.962671603 L84,45 L96.2352941,45 L96.2352941,29.2595088 C97.3586338,29.4697826 98.9981025,29.589939 100.819734,29.6500172 C106.922201,29.589939 112.053131,28.6587267 116.091082,26.5559893 C117.1537,26.0453245 118.185958,25.4145033 119.157495,24.6334866 C120.705882,23.4920006 121.889943,21.9600062 122.800759,20.2177381 C123.559772,18.3853527 123.98482,16.3426935 123.954459,14.2699953 C124.01518,14.0597215 124.01518,13.9395651 123.954459,13.8794869 C123.863378,9.37362109 121.434535,5.76892845 118.185958,3.66619108 M100.819734,21.5394587 C98.7552182,21.5094196 97.2979127,21.4193023 96.2352941,21.1489504 L96.2352941,20.187699 L96.2352941,13.8494478 L96.2352941,8.2922133 C97.1157495,8.05190046 98.9677419,7.87166583 101.760911,7.90170493 C107.802657,7.87166583 111.506641,9.91432499 111.901328,13.8494478 C111.810247,13.9395651 111.810247,14.1197997 111.901328,14.2399562 C111.810247,17.0035538 110.322581,19.0161739 107.711575,20.187699 C105.950664,21.0588331 103.582543,21.5094196 100.819734,21.5394587" fill="#FFFFFF" fill-rule="nonzero"></path>
  <path d="M69.4337748,37.3468541 L69.4337748,33.2925587 L69.4337748,26.7756543 L69.4337748,26.2050497 C69.4039735,24.1628861 69.1059603,22.210818 68.4801325,20.4389407 C67.3476821,17.7360772 65.4403974,15.5137227 62.4900662,14.1022272 C59.8377483,12.7808273 56.4701987,12.0600636 52.1788079,12 C46.6655629,12.0600636 42.3443709,12.99105 39.4238411,14.1022272 C38.3211921,14.4025454 37.486755,14.7629272 36.8013245,15.0632454 L38.5,20.4389407 L39.0662252,21.7903725 C39.9006623,21.3098635 41.0033113,20.8593862 42.2549669,20.4389407 C44.6390728,19.6881453 47.4701987,19.1475726 50.1225166,19.087509 C53.0728477,19.1475726 54.8609272,19.6881453 55.9337748,20.4389407 C57.1556291,21.3398953 57.4238411,22.4811043 57.4238411,23.3219952 L57.4238411,23.5021861 C49.8543046,23.532218 43.8940397,24.6133634 39.8112583,26.7756543 C37.0695364,28.4274042 35.2218543,30.5596633 34.3874172,33.3225905 C34.2384106,34.1634814 34.089404,35.1244996 34,36.205645 C34.089404,37.3468541 34.3576159,38.5481268 34.9536424,39.659304 C36.5033113,43.2330903 40.615894,46.086113 46.7549669,45.9960175 C51.5529801,46.086113 55.6357616,44.6445857 58.1986755,41.971754 L58.3774834,41.971754 L59.1225166,45.2452221 L70,45.2452221 C69.7317881,44.0139176 69.5231788,42.0017858 69.4337748,39.659304 C69.4337748,38.8784768 69.4337748,38.0976495 69.4337748,37.3468541 M57.8112583,30.0491224 L57.8112583,32.9321769 C57.781457,33.0523041 57.781457,33.1423996 57.8112583,33.3225905 C57.7516556,33.7730678 57.7218543,34.2836087 57.6324503,34.6740223 C56.7980132,36.866345 54.205298,38.7883813 51.0761589,38.6982858 C48.0066225,38.7583495 46.0993377,37.4669813 46.0099338,35.0344041 C46.0993377,34.3737041 46.2483444,33.7730678 46.5761589,33.2925587 C47.9172185,30.9500769 52.089404,30.0491224 57.8112583,30.0491224" fill="#FFFFFF" fill-rule="nonzero"></path>
  <polygon fill="#FFFFFF" fill-rule="nonzero" points="0 0 11.8244973 0 11.8244973 34.923588 33 34.923588 33 45 0 45"></polygon>
  <rect class="svg-lp__border svg-lp__border--premium" fill="#C9A662" x="0" y="44" width="375" height="8"></rect>
      </g>
    </svg>